<?xml version="1.0" encoding="UTF-8" standalone="no"?>
<!-- Created with Inkscape (http://www.inkscape.org/) -->

<svg
   width="145.56296mm"
   height="135.89508mm"
   viewBox="0 0 145.56296 135.89508"
   version="1.1"
   id="svg1"
   xml:space="preserve"
   xmlns="http://www.w3.org/2000/svg"
   xmlns:svg="http://www.w3.org/2000/svg"><defs
     id="defs1"><linearGradient
       id="swatch3"><stop
         style="stop-color:#16ba8a;stop-opacity:1;"
         offset="0"
         id="stop3" /></linearGradient></defs><g
     id="layer1"
     transform="translate(-37.372569,-35.914774)"><path
       style="fill:#16ba8a;fill-opacity:1;stroke:#16ba8a;stroke-linejoin:bevel;stroke-opacity:1;paint-order:normal"
       d="m 80.894047,171.23171 c -24.18686,-0.15284 -22.36286,-0.0271 -27.14618,-1.87172 -7.60738,-2.93372 -13.87866,-10.54351 -15.42924,-18.72238 -0.48109,-2.53756 -0.62881,-85.023964 -0.16331,-91.185882 0.77798,-10.298194 8.0882,-18.787171 18.92623,-21.978022 4.52014,-1.330786 101.299173,-1.445612 106.097913,-0.125883 8.67425,2.38555 15.48948,8.794845 18.29906,17.209113 1.00326,3.004608 1.35472,91.936944 0.38214,96.697764 -2.23143,10.92303 -11.95238,19.40018 -22.78224,19.86721 -4.27973,0.18456 -55.06659,0.25588 -78.184373,0.1098 z m 33.734373,-15.32615 c 36.09161,-2.27761 59.1959,-40.9116 43.62272,-72.943998 -21.55434,-44.335002 -90.162143,-36.44042 -99.867273,11.49155 -6.8754,33.956438 20.36288,63.716808 56.244553,61.452448 z m -4.65393,-6.09117 c -0.8007,-0.32381 -0.90039,-3.99008 -0.90144,-33.15306 -8.8e-4,-24.546658 -8.8e-4,-24.546658 -0.59619,-24.770558 -0.71765,-0.2699 -16.120353,-2.36903 -18.958563,-2.58372 -3.67284,-0.27783 -5.18087,0.61992 -5.99,3.56592 -1.72206,6.26989 -2.82932,8.348188 -5.38493,10.107338 -2.49483,1.7173 -6.34226,2.50273 -10.73958,2.1924 -3.25194,-0.22949 -3.19386,-0.14791 -2.813,-3.95097 4.78662,-47.797263 70.910903,-56.77663 88.518993,-12.020458 2.44873,6.22417 3.71886,14.276498 2.45245,15.547978 -1.14638,1.15097 -8.58945,0.51037 -11.56506,-0.99537 -3.45181,-1.74671 -4.70403,-3.72601 -6.72334,-10.627168 -0.78312,-2.67633 -2.27655,-3.90937 -4.73497,-3.90937 -1.96827,0 -20.36089,2.61189 -20.68856,2.93793 -0.17145,0.17059 -0.31116,10.248068 -0.39688,28.626728 -0.0728,15.59991 -0.23433,28.57183 -0.35903,28.82649 -0.25153,0.51362 -0.32539,0.52719 -1.1199,0.20589 z m -14.263773,-2.61452 c -16.46533,-5.20291 -28.79127,-19.70965 -30.9502,-36.42613 -0.17178,-1.33008 -0.17178,-1.33008 4.93817,-1.32292 7.17976,0.0101 10.75386,-1.10075 14.01036,-4.35434 2.12219,-2.12029 2.92865,-3.83444 4.19753,-8.921908 0.5605,-2.24725 0.66855,-2.26167 8.54687,-1.14048 6.837633,0.97309 6.861753,0.98338 7.148833,3.05003 0.45452,3.271938 -0.0141,46.868598 -0.51191,47.628408 -1.33281,2.03412 -3.968323,2.5653 -7.379653,1.48734 z m 24.012623,0.47394 c -1.49571,-0.45727 -2.60745,-1.82857 -2.80304,-3.45747 -0.2198,-1.83054 -0.17228,-44.03892 0.0519,-46.133078 0.22081,-2.06229 0.14225,-2.02962 7.28525,-3.02906 8.11127,-1.13492 8.04179,-1.1533 8.75716,2.31599 1.83801,8.913738 9.16541,13.455198 20.08045,12.445688 3.17631,-0.29377 2.98615,-0.48862 2.42232,2.48195 -2.39916,12.64032 -10.53098,24.33444 -21.55639,30.99959 -5.07553,3.06829 -11.77779,5.12844 -14.23769,4.37639 z"
       id="path3" /></g></svg>
