<?xml version="1.0" encoding="UTF-8" standalone="no"?>
<!-- Created with Inkscape (http://www.inkscape.org/) -->

<svg
   width="144.86916mm"
   height="135.20947mm"
   viewBox="0 0 144.86916 135.20947"
   version="1.1"
   id="svg1"
   xml:space="preserve"
   inkscape:export-filename="bitmasp.svg"
   inkscape:export-xdpi="96"
   inkscape:export-ydpi="96"
   inkscape:version="1.4.2 (f4327f4, 2025-05-13)"
   sodipodi:docname="dibujo.svg"
   xmlns:inkscape="http://www.inkscape.org/namespaces/inkscape"
   xmlns:sodipodi="http://sodipodi.sourceforge.net/DTD/sodipodi-0.dtd"
   xmlns="http://www.w3.org/2000/svg"
   xmlns:svg="http://www.w3.org/2000/svg"><sodipodi:namedview
     id="namedview1"
     pagecolor="#ffffff"
     bordercolor="#000000"
     borderopacity="0.2627451"
     inkscape:showpageshadow="true"
     inkscape:pageopacity="0.0"
     inkscape:pagecheckerboard="0"
     inkscape:deskcolor="#d1d1d1"
     inkscape:document-units="mm"
     inkscape:export-bgcolor="#ffffff00"
     inkscape:antialias-rendering="true"
     labelstyle="default"
     showguides="true"
     inkscape:lockguides="false"
     inkscape:zoom="0.71891835"
     inkscape:cx="573.77865"
     inkscape:cy="203.77836"
     inkscape:window-width="1920"
     inkscape:window-height="1009"
     inkscape:window-x="-8"
     inkscape:window-y="-8"
     inkscape:window-maximized="1"
     inkscape:current-layer="layer1" /><defs
     id="defs1"><linearGradient
       id="swatch3"
       inkscape:swatch="solid"><stop
         style="stop-color:#16ba8a;stop-opacity:1;"
         offset="0"
         id="stop3" /></linearGradient></defs><g
     inkscape:label="Capa 1"
     inkscape:groupmode="layer"
     id="layer1"
     transform="translate(-37.682449,-35.854052)"><path
       style="fill:#16ba8a;fill-opacity:1;stroke:#16ba8a;stroke-opacity:1;stroke-linejoin:miter"
       d="m 80.894047,171.23171 c -24.18686,-0.15284 -22.36286,-0.0271 -27.14618,-1.87172 -7.60738,-2.93372 -13.87866,-10.54351 -15.42924,-18.72238 -0.48109,-2.53756 -0.62881,-85.023964 -0.16331,-91.185882 0.77798,-10.298194 8.0882,-18.787171 18.92623,-21.978022 4.52014,-1.330786 101.299173,-1.445612 106.097913,-0.125883 8.67425,2.38555 15.48948,8.794845 18.29906,17.209113 1.00326,3.004608 1.35472,91.936944 0.38214,96.697764 -2.23143,10.92303 -11.95238,19.40018 -22.78224,19.86721 -4.27973,0.18456 -55.06659,0.25588 -78.184373,0.1098 z m 33.734373,-15.32615 c 36.09161,-2.27761 59.1959,-40.9116 43.62272,-72.943998 -21.55434,-44.335002 -90.162143,-36.44042 -99.867273,11.49155 -6.8754,33.956438 20.36288,63.716808 56.244553,61.452448 z m -4.65393,-6.09117 c -0.8007,-0.32381 -0.90039,-3.99008 -0.90144,-33.15306 -8.8e-4,-24.546658 -8.8e-4,-24.546658 -0.59619,-24.770558 -0.71765,-0.2699 -16.120353,-2.36903 -18.958563,-2.58372 -3.67284,-0.27783 -5.18087,0.61992 -5.99,3.56592 -1.72206,6.26989 -2.82932,8.348188 -5.38493,10.107338 -2.49483,1.7173 -6.34226,2.50273 -10.73958,2.1924 -3.25194,-0.22949 -3.19386,-0.14791 -2.813,-3.95097 4.78662,-47.797263 70.910903,-56.77663 88.518993,-12.020458 2.44873,6.22417 3.71886,14.276498 2.45245,15.547978 -1.14638,1.15097 -8.58945,0.51037 -11.56506,-0.99537 -3.45181,-1.74671 -4.70403,-3.72601 -6.72334,-10.627168 -0.78312,-2.67633 -2.27655,-3.90937 -4.73497,-3.90937 -1.96827,0 -20.36089,2.61189 -20.68856,2.93793 -0.17145,0.17059 -0.31116,10.248068 -0.39688,28.626728 -0.0728,15.59991 -0.23433,28.57183 -0.35903,28.82649 -0.25153,0.51362 -0.32539,0.52719 -1.1199,0.20589 z m -14.263773,-2.61452 c -16.46533,-5.20291 -28.79127,-19.70965 -30.9502,-36.42613 -0.17178,-1.33008 -0.17178,-1.33008 4.93817,-1.32292 7.17976,0.0101 10.75386,-1.10075 14.01036,-4.35434 2.12219,-2.12029 2.92865,-3.83444 4.19753,-8.921908 0.5605,-2.24725 0.66855,-2.26167 8.54687,-1.14048 6.837633,0.97309 6.861753,0.98338 7.148833,3.05003 0.45452,3.271938 -0.0141,46.868598 -0.51191,47.628408 -1.33281,2.03412 -3.968323,2.5653 -7.379653,1.48734 z m 24.012623,0.47394 c -1.49571,-0.45727 -2.60745,-1.82857 -2.80304,-3.45747 -0.2198,-1.83054 -0.17228,-44.03892 0.0519,-46.133078 0.22081,-2.06229 0.14225,-2.02962 7.28525,-3.02906 8.11127,-1.13492 8.04179,-1.1533 8.75716,2.31599 1.83801,8.913738 9.16541,13.455198 20.08045,12.445688 3.17631,-0.29377 2.98615,-0.48862 2.42232,2.48195 -2.39916,12.64032 -10.53098,24.33444 -21.55639,30.99959 -5.07553,3.06829 -11.77779,5.12844 -14.23769,4.37639 z"
       id="path3" /><path
       style="fill:#f9f9f9;fill-opacity:1;stroke:none;stroke-width:1.39098;stroke-opacity:1;paint-order:stroke fill markers"
       d="M 259.93893,452.62194 C 158.41917,445.78473 79.360114,367.12182 75.547393,269.15435 74.176395,233.92669 79.959871,206.37544 95.256727,175.2633 121.07776,122.74611 166.17598,88.197682 228.12048,73.480255 c 21.59604,-5.131015 59.3941,-6.084893 82.76322,-2.088625 81.32152,13.906493 144.05098,74.42994 159.44842,153.84107 8.88028,45.7994 -2.49218,99.94951 -29.40591,140.01664 -41.09672,61.18166 -105.83423,92.43405 -180.98728,87.3726 z m 18.37485,-23.8528 c 0.0649,-1.72134 0.55029,-50.50842 1.07857,-108.41576 0.52828,-57.90733 1.43912,-105.76466 2.02409,-106.34962 1.41507,-1.41507 23.70263,-5.08454 54.76203,-9.01614 34.48894,-4.36573 33.44839,-4.89082 42.7736,21.58484 2.6642,7.56402 6.54705,16.21027 8.62856,19.21391 7.34006,10.5917 23.13194,16.71468 43.7522,16.96404 8.26635,0.1 12.66364,-0.44425 14.25753,-1.7645 3.18217,-2.63585 3.00345,-13.699 -0.49894,-30.8855 C 430.40071,158.01185 375.63835,104.87254 303.92546,93.118333 287.11938,90.363707 253.80818,91.089722 238.20752,94.550652 161.67738,111.52849 110.50129,167.64173 101.43472,244.51844 c -2.183808,18.51677 -2.680683,18.07527 19.65659,17.46575 16.92789,-0.46193 17.96388,-0.66614 27.19157,-5.35993 11.95675,-6.08197 16.84306,-12.86558 22.86818,-31.74767 7.8208,-24.50954 7.55179,-24.40658 49.88193,-19.09104 16.77399,2.10636 34.15041,4.55074 38.61427,5.43195 l 8.11611,1.60222 0.38202,20.86468 c 0.21011,11.47557 0.83766,59.98595 1.39454,107.80083 0.55689,47.81489 1.5173,87.71859 2.13429,88.67488 1.95543,3.03092 6.50873,2.07701 6.63956,-1.39097 z m -36.23707,-8.34588 c 2.57448,-1.73994 5.15356,-4.9827 5.80809,-7.30263 1.47106,-5.21421 3.28411,-170.60132 1.94826,-177.72201 -0.58199,-3.10225 -2.24099,-6.04033 -4.09766,-7.25687 -3.18733,-2.08842 -37.26709,-7.68883 -46.55402,-7.65035 -2.82693,0.0117 -5.93044,0.52314 -6.8967,1.13651 -0.96625,0.61336 -2.96308,5.45482 -4.4374,10.75879 -4.14029,14.89496 -6.65682,19.85836 -14.0112,27.63452 -11.94195,12.62686 -26.54638,17.39603 -53.51644,17.47615 -8.41542,0.025 -16.18434,0.60478 -17.26426,1.28839 -4.377484,2.77107 4.28746,35.53486 15.00118,56.7223 18.32284,36.23525 49.95331,65.43843 87.87803,81.13437 18.71267,7.74462 28.72712,8.79224 36.14212,3.78083 z m 94.5401,-1.07211 c 38.64603,-13.44219 74.58958,-46.12479 94.4733,-85.90228 8.86298,-17.73044 18.55124,-52.7082 14.92342,-53.8784 -0.87774,-0.28314 -10.35905,-0.76288 -21.06958,-1.0661 -15.93614,-0.45118 -20.92391,-1.11496 -27.45682,-3.65402 -18.82386,-7.31602 -30.22189,-20.09871 -35.60601,-39.93152 -3.1756,-11.69757 -5.39026,-14.44873 -11.63118,-14.44873 -8.4515,0 -45.09441,5.84031 -47.84343,7.62551 -2.85619,1.85479 -2.93286,3.06709 -3.91196,61.85779 -0.54927,32.98127 -0.54984,74.4992 -10e-4,92.26206 l 0.99741,32.29615 4.69788,4.70438 c 4.60302,4.60941 4.88656,4.69002 14.04237,3.99219 5.13947,-0.39169 13.41311,-2.12737 18.38586,-3.85703 z"
       id="path4"
       transform="matrix(0.26458333,0,0,0.26458333,37.682449,35.854052)"
       inkscape:export-filename="path4.png"
       inkscape:export-xdpi="96"
       inkscape:export-ydpi="96" /></g></svg>
